<svg width="372" height="381" viewBox="0 0 372 381" fill="none" xmlns="http://www.w3.org/2000/svg">
<g clip-path="url(#clip0_19598_21350)">
<g style="mix-blend-mode:multiply" opacity="0.5">
<path d="M177.35 380.98C174.706 380.982 172.087 380.461 169.645 379.447C167.202 378.432 164.985 376.945 163.12 375.07L5.91008 217.9C4.03045 216.03 2.54028 213.806 1.52583 211.357C0.511385 208.908 -0.00720258 206.281 7.55586e-05 203.63V187.04C-0.00720258 184.389 0.511385 181.763 1.52583 179.313C2.54028 176.864 4.03045 174.64 5.91008 172.77L163.12 15.6001C164.99 13.7204 167.214 12.2303 169.663 11.2158C172.113 10.2014 174.739 9.68277 177.39 9.69005H193.98C196.63 9.68133 199.255 10.1993 201.703 11.2139C204.151 12.2284 206.373 13.7194 208.24 15.6001L365.42 172.77C367.3 174.64 368.79 176.864 369.804 179.313C370.819 181.763 371.337 184.389 371.33 187.04V203.63C371.337 206.281 370.819 208.908 369.804 211.357C368.79 213.806 367.3 216.03 365.42 217.9L208.21 375.07C206.34 376.949 204.116 378.438 201.666 379.453C199.217 380.467 196.591 380.986 193.94 380.98H177.35Z" fill="#0B0D11" fill-opacity="0.1"/>
</g>
<path d="M177.35 371.3C174.699 371.311 172.073 370.796 169.623 369.783C167.173 368.77 164.949 367.28 163.08 365.4L5.91011 208.2C4.02944 206.333 2.53848 204.111 1.52391 201.663C0.509344 199.215 -0.00861165 196.59 0.000108296 193.94V177.35C-0.00716984 174.699 0.511418 172.072 1.52587 169.623C2.54031 167.174 4.03048 164.95 5.91011 163.08L163.12 5.90999C164.99 4.03036 167.214 2.5402 169.663 1.52575C172.113 0.511303 174.739 -0.00729191 177.39 -1.37786e-05H193.98C196.63 -0.00873372 199.255 0.509245 201.703 1.52381C204.151 2.53838 206.373 4.02931 208.24 5.90999L365.42 163.08C367.3 164.95 368.79 167.174 369.804 169.623C370.819 172.072 371.337 174.699 371.33 177.35V193.94C371.339 196.59 370.821 199.215 369.806 201.663C368.792 204.111 367.301 206.333 365.42 208.2L208.21 365.38C206.339 367.257 204.115 368.745 201.666 369.758C199.216 370.771 196.591 371.288 193.94 371.28L177.35 371.3Z" fill="#FFF100"/>
<path d="M177.35 369.3C174.963 369.307 172.598 368.84 170.392 367.927C168.187 367.013 166.184 365.672 164.5 363.98L7.3301 206.79C5.63358 205.109 4.28861 203.107 3.37353 200.901C2.45845 198.695 1.99158 196.328 2.00011 193.94V177.35C1.99358 174.96 2.46132 172.593 3.37624 170.386C4.29117 168.178 5.63508 166.174 7.3301 164.49L164.5 7.30005C166.184 5.60803 168.187 4.26665 170.392 3.3535C172.598 2.44034 174.963 1.97353 177.35 1.98005H193.94C196.327 1.97353 198.692 2.44034 200.898 3.3535C203.103 4.26665 205.106 5.60803 206.79 7.30005L363.96 164.5C365.657 166.181 367.002 168.183 367.917 170.389C368.832 172.595 369.299 174.962 369.29 177.35V193.94C369.299 196.328 368.832 198.695 367.917 200.901C367.002 203.107 365.657 205.109 363.96 206.79L206.79 363.96C205.108 365.656 203.106 367.001 200.9 367.917C198.694 368.834 196.329 369.304 193.94 369.3H177.35Z" fill="#FBB618"/>
<path d="M341.44 172.19L199.12 29.85C198.34 29.07 197.414 28.4513 196.395 28.0292C195.375 27.6071 194.283 27.3899 193.18 27.39H178.18C177.077 27.3894 175.984 27.6064 174.965 28.0285C173.946 28.4506 173.02 29.0696 172.24 29.85L29.8499 172.19C29.0695 172.97 28.4505 173.896 28.0284 174.915C27.6062 175.934 27.3893 177.027 27.3899 178.13V193.13C27.3882 194.233 27.6047 195.326 28.0268 196.346C28.449 197.365 29.0686 198.291 29.8499 199.07L172.19 341.42C173.761 342.997 175.893 343.889 178.12 343.9H193.12C195.347 343.896 197.482 343.012 199.06 341.44L341.4 199.09C342.974 197.514 343.859 195.378 343.86 193.15V178.15C343.873 175.922 343.003 173.779 341.44 172.19Z" fill="black"/>
<path d="M185.64 50.8799C188.004 50.8799 189.92 48.9637 189.92 46.5999C189.92 44.2362 188.004 42.3199 185.64 42.3199C183.276 42.3199 181.36 44.2362 181.36 46.5999C181.36 48.9637 183.276 50.8799 185.64 50.8799Z" fill="black"/>
<path d="M189.92 324.69C189.92 325.825 189.469 326.914 188.667 327.716C187.864 328.519 186.775 328.97 185.64 328.97C184.507 328.967 183.421 328.515 182.62 327.713C181.82 326.91 181.37 325.823 181.37 324.69C181.369 324.128 181.478 323.572 181.692 323.053C181.906 322.534 182.221 322.062 182.617 321.664C183.014 321.267 183.485 320.951 184.004 320.736C184.522 320.521 185.079 320.41 185.64 320.41C186.203 320.409 186.76 320.518 187.28 320.733C187.799 320.948 188.272 321.263 188.669 321.661C189.067 322.058 189.382 322.531 189.597 323.05C189.812 323.57 189.921 324.128 189.92 324.69Z" fill="black"/>
<path d="M324.69 189.92C327.054 189.92 328.97 188.004 328.97 185.64C328.97 183.276 327.054 181.36 324.69 181.36C322.326 181.36 320.41 183.276 320.41 185.64C320.41 188.004 322.326 189.92 324.69 189.92Z" fill="black"/>
<path d="M46.6001 189.92C48.9638 189.92 50.8801 188.004 50.8801 185.64C50.8801 183.276 48.9638 181.36 46.6001 181.36C44.2363 181.36 42.3201 183.276 42.3201 185.64C42.3201 188.004 44.2363 189.92 46.6001 189.92Z" fill="black"/>
<path d="M66.4901 188.3C65.8859 188.687 65.1674 188.855 64.4542 188.777C63.741 188.699 63.0761 188.379 62.5701 187.87C62.0614 187.364 61.7412 186.699 61.663 185.986C61.5848 185.273 61.7531 184.554 62.1401 183.95L59.5201 181.3C58.4528 182.609 57.909 184.267 57.994 185.954C58.079 187.64 58.7867 189.235 59.9801 190.43C61.1749 191.623 62.77 192.331 64.4566 192.416C66.1433 192.501 67.8014 191.957 69.1101 190.89L66.4901 188.3Z" fill="white"/>
<path d="M60.48 180.37L63.1 182.98C63.7063 182.594 64.4261 182.426 65.1405 182.504C65.855 182.583 66.5215 182.902 67.03 183.41C67.5379 183.918 67.8573 184.585 67.9355 185.299C68.0137 186.014 67.8459 186.734 67.46 187.34L70.07 189.95C71.1386 188.642 71.6841 186.985 71.601 185.298C71.5179 183.612 70.812 182.016 69.62 180.82C68.4234 179.625 66.8256 178.918 65.1367 178.834C63.4477 178.751 61.7882 179.299 60.48 180.37Z" fill="white"/>
<path d="M308.19 188.3C307.584 188.686 306.864 188.854 306.15 188.776C305.435 188.697 304.769 188.378 304.26 187.87C303.751 187.364 303.431 186.699 303.353 185.986C303.275 185.273 303.443 184.554 303.83 183.95L301.22 181.3C300.147 182.606 299.599 184.264 299.682 185.952C299.765 187.64 300.474 189.236 301.67 190.43C302.865 191.623 304.46 192.331 306.147 192.416C307.833 192.501 309.491 191.957 310.8 190.89L308.19 188.3Z" fill="white"/>
<path d="M302.18 180.37L304.8 182.98C305.404 182.593 306.123 182.425 306.836 182.503C307.549 182.581 308.214 182.901 308.72 183.41C309.214 183.919 309.521 184.58 309.594 185.286C309.666 185.991 309.5 186.701 309.12 187.3L311.74 189.91C312.807 188.601 313.351 186.943 313.266 185.257C313.181 183.57 312.473 181.975 311.28 180.78C310.083 179.598 308.49 178.902 306.809 178.826C305.128 178.75 303.479 179.3 302.18 180.37Z" fill="white"/>
<path d="M335.14 137.29H36.1399V142.79H335.14V137.29Z" fill="#FBB618"/>
<path d="M335.14 228.5H36.1399V234H335.14V228.5Z" fill="#FBB618"/>
<path d="M197.38 265.18C197.272 265.145 197.157 265.133 197.044 265.143C196.931 265.153 196.82 265.186 196.72 265.24C195.756 265.666 194.921 266.339 194.3 267.19C194.009 267.921 193.998 268.733 194.269 269.471C194.54 270.21 195.075 270.822 195.77 271.19C196.472 271.701 197.34 271.93 198.203 271.831C199.066 271.733 199.86 271.315 200.43 270.66C200.904 269.625 201.07 268.477 200.91 267.35C200.901 267.279 200.869 267.212 200.82 267.16C200.786 267.127 200.746 267.102 200.702 267.086C200.657 267.071 200.61 267.065 200.563 267.07C200.516 267.075 200.471 267.09 200.431 267.114C200.391 267.138 200.356 267.171 200.33 267.21L199.18 268.96C199.136 269.033 199.076 269.096 199.005 269.144C198.935 269.193 198.854 269.225 198.77 269.24C198.515 269.288 198.254 269.283 198.001 269.226C197.748 269.169 197.51 269.062 197.3 268.91C196.904 268.621 196.593 268.231 196.4 267.78C196.358 267.693 196.337 267.597 196.337 267.5C196.337 267.403 196.358 267.307 196.4 267.22L197.4 265.39C197.421 265.358 197.43 265.32 197.426 265.282C197.423 265.243 197.406 265.208 197.38 265.18Z" fill="white"/>
<path d="M174.67 291.3C174.194 290.824 173.548 290.557 172.875 290.557C172.202 290.557 171.556 290.824 171.08 291.3C170.604 291.776 170.337 292.422 170.337 293.095C170.337 293.768 170.604 294.414 171.08 294.89C171.556 295.366 172.202 295.633 172.875 295.633C173.548 295.633 174.194 295.366 174.67 294.89C174.908 294.656 175.097 294.376 175.226 294.068C175.355 293.76 175.421 293.429 175.421 293.095C175.421 292.761 175.355 292.43 175.226 292.122C175.097 291.814 174.908 291.534 174.67 291.3ZM171.25 294.72C171.078 294.55 170.942 294.347 170.849 294.124C170.756 293.901 170.708 293.662 170.708 293.42C170.708 293.178 170.756 292.939 170.849 292.716C170.942 292.493 171.078 292.29 171.25 292.12C171.42 291.948 171.623 291.812 171.846 291.719C172.069 291.626 172.308 291.578 172.55 291.578C172.792 291.578 173.031 291.626 173.254 291.719C173.477 291.812 173.68 291.948 173.85 292.12C174.022 292.29 174.158 292.493 174.251 292.716C174.344 292.939 174.392 293.178 174.392 293.42C174.392 293.662 174.344 293.901 174.251 294.124C174.158 294.347 174.022 294.55 173.85 294.72C173.677 294.889 173.473 295.022 173.248 295.112C173.024 295.202 172.783 295.246 172.542 295.242C172.3 295.238 172.061 295.187 171.84 295.09C171.618 294.994 171.418 294.854 171.25 294.68V294.72Z" fill="white"/>
<path d="M171.96 293.97C171.703 293.728 171.532 293.408 171.473 293.06C171.413 292.712 171.469 292.354 171.63 292.04C171.52 292.098 171.419 292.173 171.33 292.26C171.049 292.572 170.902 292.983 170.923 293.403C170.943 293.822 171.129 294.217 171.44 294.5C171.723 294.809 172.116 294.993 172.534 295.011C172.952 295.03 173.361 294.882 173.67 294.6C173.758 294.509 173.835 294.408 173.9 294.3C173.585 294.466 173.225 294.523 172.874 294.463C172.524 294.404 172.202 294.23 171.96 293.97Z" fill="white"/>
<path d="M185.17 282.5C184.866 282.387 184.58 282.232 184.32 282.04L180.32 286.04L178.4 287.96C177.4 288.9 176.66 289.49 176.58 289.41C176.968 288.733 177.461 288.122 178.04 287.6L179.95 285.68L183.95 281.68C183.682 281.409 183.468 281.09 183.32 280.74L174.32 289.74C174.129 289.932 173.918 290.103 173.69 290.25C174.177 290.381 174.621 290.636 174.98 290.99C175.334 291.349 175.589 291.793 175.72 292.28C175.867 292.052 176.038 291.841 176.23 291.65L185.38 282.51L185.17 282.5Z" fill="white"/>
<path d="M195.68 271.5C195.371 271.3 195.082 271.069 194.82 270.81C194.418 270.416 194.101 269.942 193.89 269.42C193.736 269.991 193.452 270.518 193.06 270.96L186.01 277.96C186.365 278.1 186.686 278.315 186.95 278.59L189.69 275.85L191.6 273.93C192.6 272.99 193.34 272.4 193.42 272.48C193.031 273.159 192.539 273.773 191.96 274.3L190.12 276.3L187.34 279.07C187.538 279.327 187.694 279.614 187.8 279.92C187.8 279.97 187.8 280.01 187.85 280.05L195 272.9C195.487 272.469 196.075 272.17 196.71 272.03C196.349 271.89 196.004 271.712 195.68 271.5Z" fill="white"/>
<path d="M172.67 268.22L183.93 279.47L184.3 279.1L184.37 279.02L184.74 278.65L173.49 267.4L172.67 268.22Z" fill="white"/>
<path d="M186.97 279.12C186.717 278.763 186.371 278.483 185.97 278.31C185.868 278.269 185.757 278.257 185.649 278.277C185.541 278.296 185.441 278.346 185.36 278.42L184.68 279.09L184.41 279.37L183.73 280.04C183.655 280.121 183.606 280.221 183.588 280.33C183.57 280.438 183.585 280.55 183.63 280.65C183.804 281.051 184.084 281.397 184.44 281.65C184.701 281.861 184.995 282.026 185.31 282.14C185.499 282.203 185.67 282.309 185.81 282.45C186.509 283.123 187.114 283.886 187.61 284.72L188.71 283.62L188.99 283.35L190.09 282.24C189.255 281.742 188.488 281.137 187.81 280.44C187.668 280.303 187.564 280.13 187.51 279.94C187.37 279.642 187.188 279.366 186.97 279.12Z" fill="white"/>
<path d="M191.12 282.79L190.54 282.38C190.508 282.348 190.465 282.33 190.42 282.33C190.375 282.33 190.332 282.348 190.3 282.38L187.63 285.04C187.602 285.075 187.586 285.12 187.586 285.165C187.586 285.21 187.602 285.255 187.63 285.29L188.03 285.86L191.12 282.79Z" fill="white"/>
<path d="M200.29 291.3L191.8 282.82C191.778 282.798 191.751 282.78 191.722 282.768C191.693 282.756 191.662 282.749 191.63 282.749C191.598 282.749 191.567 282.756 191.538 282.768C191.509 282.78 191.482 282.798 191.46 282.82L189.8 284.49L189.75 284.54L188.08 286.2C188.036 286.248 188.012 286.31 188.012 286.375C188.012 286.44 188.036 286.502 188.08 286.55L196.56 295.03C196.56 295.03 197.36 295.93 198.64 294.65L199.23 294.06L199.28 294.01L199.87 293.42C201.19 292.13 200.29 291.3 200.29 291.3Z" fill="white"/>
<path d="M200.02 293.52L199.43 294.11L199.38 294.16L198.79 294.75C198.618 294.924 198.427 295.078 198.22 295.21C198.284 295.268 198.363 295.306 198.448 295.32C198.533 295.335 198.621 295.324 198.7 295.29C198.994 295.151 199.258 294.957 199.48 294.72L199.68 294.53L199.8 294.4L200 294.2C200.234 293.975 200.427 293.711 200.57 293.42C200.603 293.34 200.612 293.252 200.596 293.167C200.58 293.082 200.54 293.003 200.48 292.94C200.349 293.15 200.195 293.345 200.02 293.52Z" fill="white"/>
<path d="M171.76 265.69L170.94 265.42C170.918 265.405 170.892 265.396 170.865 265.396C170.838 265.396 170.812 265.405 170.79 265.42L170.72 265.48C170.708 265.503 170.701 265.529 170.701 265.555C170.701 265.581 170.708 265.607 170.72 265.63L171 266.45C170.995 266.476 170.995 266.504 171 266.53L172.43 267.96L172.76 267.63C172.185 267.11 171.662 266.533 171.2 265.91C171.816 266.377 172.388 266.9 172.91 267.47L173.24 267.14L171.82 265.71L171.76 265.69Z" fill="white"/>
<path d="M185.64 308.65C178.144 308.639 170.958 305.656 165.658 300.355C160.359 295.053 157.378 287.866 157.37 280.37C157.378 272.874 160.359 265.687 165.658 260.385C170.958 255.084 178.144 252.101 185.64 252.09C193.138 252.098 200.327 255.08 205.628 260.382C210.93 265.684 213.912 272.872 213.92 280.37C213.912 287.868 210.93 295.056 205.628 300.358C200.327 305.66 193.138 308.642 185.64 308.65ZM185.64 253.65C178.552 253.661 171.758 256.482 166.747 261.494C161.736 266.507 158.918 273.302 158.91 280.39C158.918 287.477 161.737 294.271 166.748 299.282C171.759 304.293 178.553 307.112 185.64 307.12C192.729 307.115 199.525 304.297 204.539 299.286C209.552 294.274 212.372 287.478 212.38 280.39C212.377 273.297 209.56 266.495 204.546 261.478C199.533 256.46 192.733 253.638 185.64 253.63V253.65Z" fill="white"/>
<path d="M193.25 27.41C194.101 27.4089 194.944 27.5762 195.73 27.9023C196.516 28.2284 197.23 28.7068 197.83 29.31L341.98 173.45C342.581 174.051 343.058 174.765 343.382 175.551C343.707 176.337 343.872 177.18 343.87 178.03V193.3C343.873 194.15 343.707 194.993 343.383 195.779C343.059 196.565 342.582 197.279 341.98 197.88L197.83 341.97C197.231 342.575 196.518 343.055 195.731 343.382C194.945 343.708 194.101 343.874 193.25 343.87H178.04C177.189 343.874 176.345 343.708 175.558 343.382C174.772 343.055 174.059 342.575 173.46 341.97L29.3099 197.83C28.1066 196.629 27.4272 195 27.4199 193.3V178.03C27.4175 177.18 27.5832 176.337 27.9076 175.551C28.232 174.765 28.7085 174.051 29.3099 173.45L173.46 29.3C174.06 28.6968 174.774 28.2184 175.56 27.8923C176.346 27.5662 177.189 27.3989 178.04 27.4H193.25M193.25 25.4H178.04C175.789 25.4029 173.631 26.2984 172.04 27.89L27.8799 172.02C26.291 173.613 25.396 175.77 25.3899 178.02V193.3C25.3949 195.55 26.2901 197.707 27.8799 199.3L172.02 343.41C173.614 344.998 175.77 345.893 178.02 345.9H193.23C195.48 345.893 197.636 344.998 199.23 343.41L343.41 199.3C345 197.707 345.895 195.55 345.9 193.3V178.03C345.894 175.78 344.999 173.623 343.41 172.03L199.27 27.88C197.678 26.2884 195.521 25.3929 193.27 25.39L193.25 25.4Z" fill="#FFF100"/>
<path d="M355.12 197.95L289.38 263.69C289.148 263.921 288.963 264.196 288.837 264.499C288.711 264.802 288.646 265.127 288.646 265.455C288.646 265.783 288.711 266.108 288.837 266.411C288.963 266.714 289.148 266.989 289.38 267.22C289.611 267.453 289.887 267.637 290.189 267.763C290.492 267.889 290.817 267.954 291.145 267.954C291.473 267.954 291.798 267.889 292.101 267.763C292.404 267.637 292.679 267.453 292.91 267.22L358.65 201.48C359.652 200.498 360.446 199.325 360.983 198.029C361.521 196.733 361.792 195.343 361.78 193.94V177.35C361.794 175.946 361.523 174.553 360.985 173.256C360.448 171.958 359.653 170.783 358.65 169.8L292.91 104.06C292.679 103.828 292.404 103.643 292.101 103.517C291.798 103.391 291.473 103.326 291.145 103.326C290.817 103.326 290.492 103.391 290.189 103.517C289.887 103.643 289.611 103.828 289.38 104.06C289.148 104.291 288.963 104.566 288.837 104.869C288.711 105.172 288.646 105.497 288.646 105.825C288.646 106.153 288.711 106.478 288.837 106.781C288.963 107.084 289.148 107.359 289.38 107.59L355.12 173.3C356.177 174.364 356.773 175.8 356.78 177.3V193.89C356.786 194.643 356.642 195.389 356.357 196.086C356.072 196.783 355.652 197.417 355.12 197.95Z" fill="black"/>
<path d="M16.12 197.95C15.5865 197.431 15.1642 196.808 14.8789 196.121C14.5935 195.433 14.451 194.694 14.46 193.95V177.35C14.4533 176.606 14.5969 175.868 14.8821 175.181C15.1673 174.493 15.5884 173.871 16.12 173.35L81.8599 107.61C82.0925 107.379 82.277 107.104 82.4029 106.801C82.5288 106.498 82.5936 106.173 82.5936 105.845C82.5936 105.517 82.5288 105.192 82.4029 104.889C82.277 104.586 82.0925 104.311 81.8599 104.08C81.6286 103.848 81.3535 103.663 81.0507 103.537C80.7478 103.411 80.423 103.346 80.095 103.346C79.7669 103.346 79.4422 103.411 79.1393 103.537C78.8364 103.663 78.5613 103.848 78.3299 104.08L12.59 169.82C11.5868 170.803 10.7925 171.978 10.2546 173.276C9.71678 174.573 9.44648 175.966 9.45995 177.37V193.96C9.44877 195.364 9.72012 196.756 10.2578 198.053C10.7955 199.35 11.5886 200.526 12.59 201.51L78.3299 267.25C78.7986 267.717 79.4333 267.98 80.095 267.98C80.7566 267.98 81.3913 267.717 81.8599 267.25C82.0928 267.018 82.2775 266.742 82.4035 266.438C82.5296 266.134 82.5944 265.809 82.5944 265.48C82.5944 265.151 82.5296 264.826 82.4035 264.522C82.2775 264.218 82.0928 263.942 81.8599 263.71L16.12 197.95Z" fill="black"/>
<path d="M104.06 81.9C104.292 82.1328 104.568 82.3175 104.872 82.4435C105.176 82.5696 105.501 82.6344 105.83 82.6344C106.159 82.6344 106.484 82.5696 106.788 82.4435C107.092 82.3175 107.368 82.1328 107.6 81.9L173.34 16.16C173.859 15.6265 174.482 15.2043 175.169 14.9189C175.857 14.6335 176.596 14.491 177.34 14.5H193.93C194.674 14.491 195.413 14.6335 196.101 14.9189C196.788 15.2043 197.411 15.6265 197.93 16.16L263.67 81.9C263.902 82.1328 264.178 82.3175 264.482 82.4435C264.786 82.5696 265.111 82.6344 265.44 82.6344C265.769 82.6344 266.094 82.5696 266.398 82.4435C266.702 82.3175 266.978 82.1328 267.21 81.9C267.677 81.4314 267.939 80.7967 267.939 80.135C267.939 79.4733 267.677 78.8386 267.21 78.37L201.47 12.63C200.486 11.6287 199.31 10.8355 198.013 10.2978C196.716 9.76012 195.324 9.48878 193.92 9.49997H177.33C175.926 9.48878 174.534 9.76012 173.237 10.2978C171.94 10.8355 170.764 11.6287 169.78 12.63L104.04 78.37C103.573 78.8386 103.311 79.4733 103.311 80.135C103.311 80.7967 103.573 81.4314 104.04 81.9H104.06Z" fill="black"/>
<path d="M267.23 289.38C266.758 288.915 266.122 288.654 265.46 288.654C264.797 288.654 264.162 288.915 263.69 289.38L197.95 355.12C197.431 355.653 196.808 356.076 196.121 356.361C195.433 356.646 194.694 356.789 193.95 356.78H177.36C176.615 356.789 175.877 356.646 175.189 356.361C174.502 356.076 173.879 355.653 173.36 355.12L107.62 289.38C107.148 288.915 106.512 288.654 105.85 288.654C105.187 288.654 104.552 288.915 104.08 289.38C103.847 289.612 103.662 289.888 103.536 290.192C103.41 290.496 103.345 290.821 103.345 291.15C103.345 291.479 103.41 291.804 103.536 292.108C103.662 292.412 103.847 292.688 104.08 292.92L169.82 358.66C170.806 359.658 171.982 360.448 173.279 360.984C174.576 361.52 175.967 361.791 177.37 361.78H193.96C195.363 361.791 196.754 361.52 198.051 360.984C199.348 360.448 200.524 359.658 201.51 358.66L267.25 292.92C267.715 292.448 267.976 291.812 267.976 291.15C267.976 290.487 267.715 289.852 267.25 289.38H267.23Z" fill="black"/>
<path d="M267.527 190.12H278.643C279.343 190.12 279.623 190.372 279.623 191.072V192.444C279.623 193.144 279.343 193.396 278.643 193.396H270.075V198.296H277.327C278.027 198.296 278.279 198.548 278.279 199.248V200.62C278.279 201.32 278.027 201.572 277.327 201.572H270.075V206.724H278.951C279.651 206.724 279.903 206.976 279.903 207.676V209.048C279.903 209.748 279.651 210 278.951 210H267.527C266.827 210 266.547 209.748 266.547 209.048V191.072C266.547 190.372 266.827 190.12 267.527 190.12Z" fill="white"/>
<path d="M261.116 202.216L264.672 209.048C265.008 209.692 264.84 210 264.196 210H262.572C261.34 210 261.004 209.86 260.668 209.16L257.84 203.476C257.448 202.72 257.028 202.188 256.608 201.908C256.16 201.656 255.46 201.516 254.508 201.516H253.08V209.048C253.08 209.748 252.828 210 252.128 210H250.532C249.832 210 249.552 209.748 249.552 209.048V191.072C249.552 190.372 249.832 190.12 250.532 190.12H252.128C252.828 190.12 253.08 190.372 253.08 191.072V198.324H254.2H254.564L260.192 190.904C260.668 190.232 260.976 190.12 262.096 190.12H263.888C264.532 190.12 264.7 190.568 264.336 191.044L258.092 199.024C259.296 199.556 260.304 200.62 261.116 202.216Z" fill="white"/>
<path d="M233.665 190.12H246.825C247.525 190.12 247.777 190.372 247.777 191.072V192.444C247.777 193.144 247.525 193.396 246.825 193.396H242.009V209.048C242.009 209.748 241.757 210 241.057 210H239.433C238.733 210 238.481 209.748 238.481 209.048V193.396H233.665C232.965 193.396 232.713 193.144 232.713 192.444V191.072C232.713 190.372 232.965 190.12 233.665 190.12Z" fill="white"/>
<path d="M215.769 203.112V197.008C215.769 192.444 218.653 189.7 223.777 189.7C228.845 189.7 231.757 192.444 231.757 197.008V203.112C231.757 207.676 228.845 210.42 223.777 210.42C218.653 210.42 215.769 207.676 215.769 203.112ZM228.257 203.14V196.98C228.257 194.404 226.661 192.976 223.777 192.976C220.893 192.976 219.297 194.376 219.297 196.98V203.14C219.297 205.744 220.893 207.144 223.777 207.144C226.661 207.144 228.257 205.716 228.257 203.14Z" fill="white"/>
<path d="M200.123 190.12H211.827C212.527 190.12 212.779 190.372 212.779 191.072V192.444C212.779 193.144 212.527 193.396 211.827 193.396H202.671V197.848H207.991C211.771 197.848 214.179 200.144 214.179 203.924C214.179 207.704 211.771 210 207.991 210H200.095C199.423 210 199.143 209.776 199.143 209.104V191.072C199.143 190.372 199.423 190.12 200.123 190.12ZM209.727 205.968C210.231 205.464 210.483 204.792 210.483 203.924C210.483 203.056 210.231 202.384 209.727 201.88C209.223 201.376 208.523 201.124 207.627 201.124H202.671V206.724H207.627C208.523 206.724 209.223 206.472 209.727 205.968Z" fill="white"/>
<path d="M190.793 190.848L197.793 209.076C198.017 209.692 197.793 210 197.149 210H195.693C194.545 210 194.181 209.832 193.957 209.16L192.669 205.548H184.941L183.625 209.16C183.401 209.832 183.037 210 181.889 210H180.601C179.957 210 179.733 209.692 179.957 209.076L186.957 190.876C187.209 190.232 187.461 190.092 188.133 190.092H189.617C190.289 190.092 190.569 190.26 190.793 190.848ZM191.689 202.664L189.561 196.756C189.225 195.748 189.001 194.46 188.917 193.816L188.889 193.34H188.693C188.693 194.404 188.497 195.524 188.077 196.728L185.921 202.664H191.689Z" fill="white"/>
<path d="M166.653 190.12H174.073C178.133 190.12 180.681 192.584 180.681 196.616C180.681 200.648 178.133 203.084 174.073 203.084H169.201V209.048C169.201 209.748 168.949 210 168.249 210H166.653C165.953 210 165.673 209.748 165.673 209.048V191.072C165.673 190.372 165.953 190.12 166.653 190.12ZM169.201 199.808H173.737C175.781 199.808 176.985 198.632 176.985 196.616C176.985 194.6 175.781 193.396 173.737 193.396H169.201V199.808Z" fill="white"/>
<path d="M162.907 195.412C162.907 197.4 162.151 198.828 160.667 199.64C162.571 200.452 163.523 202.076 163.523 204.456C163.523 208.236 161.087 210.42 156.159 210.42C151.707 210.42 148.907 208.852 147.815 205.716C147.591 205.128 147.787 204.708 148.403 204.484L149.943 203.952C150.615 203.728 150.895 203.868 151.147 204.54C151.791 206.332 153.163 207.144 156.159 207.144C158.595 207.144 159.827 206.192 159.827 204.288C159.827 202.524 158.875 201.488 157.083 201.488H153.163C152.463 201.488 152.211 201.236 152.211 200.536V199.276C152.211 198.576 152.463 198.324 153.163 198.324H156.663C158.371 198.324 159.323 197.344 159.323 195.692C159.323 193.872 158.203 192.976 155.935 192.976C153.219 192.976 151.959 193.76 151.315 195.552C151.063 196.224 150.783 196.364 150.111 196.14L148.571 195.608C147.955 195.384 147.759 194.964 147.983 194.376C149.075 191.268 151.819 189.7 156.159 189.7C160.527 189.7 162.907 191.8 162.907 195.412Z" fill="white"/>
<path d="M140.438 190.848L147.438 209.076C147.662 209.692 147.438 210 146.794 210H145.338C144.19 210 143.826 209.832 143.602 209.16L142.314 205.548H134.586L133.27 209.16C133.046 209.832 132.682 210 131.534 210H130.246C129.602 210 129.378 209.692 129.602 209.076L136.602 190.876C136.854 190.232 137.106 190.092 137.778 190.092H139.262C139.934 190.092 140.214 190.26 140.438 190.848ZM141.334 202.664L139.206 196.756C138.87 195.748 138.646 194.46 138.562 193.816L138.534 193.34H138.338C138.338 194.404 138.142 195.524 137.722 196.728L135.566 202.664H141.334Z" fill="white"/>
<path d="M116.298 190.12H123.718C127.778 190.12 130.326 192.584 130.326 196.616C130.326 200.648 127.778 203.084 123.718 203.084H118.846V209.048C118.846 209.748 118.594 210 117.894 210H116.298C115.598 210 115.318 209.748 115.318 209.048V191.072C115.318 190.372 115.598 190.12 116.298 190.12ZM118.846 199.808H123.382C125.426 199.808 126.63 198.632 126.63 196.616C126.63 194.6 125.426 193.396 123.382 193.396H118.846V199.808Z" fill="white"/>
<path d="M93.0818 190.12H100.838C104.45 190.12 106.578 191.996 106.578 195.356C106.578 197.344 105.878 198.744 104.45 199.584V199.696C106.354 200.368 107.306 201.992 107.306 204.54C107.306 207.984 104.786 210 101.006 210H93.0818C92.3818 210 92.1018 209.748 92.1018 209.048V191.072C92.1018 190.372 92.3818 190.12 93.0818 190.12ZM95.6298 198.324H100.418C102.126 198.324 102.994 197.512 102.994 195.86C102.994 194.208 102.126 193.396 100.418 193.396H95.6298V198.324ZM103.582 204.148C103.582 202.384 102.686 201.516 100.922 201.516H95.6298V206.724H100.922C102.686 206.724 103.582 205.856 103.582 204.148Z" fill="white"/>
<path d="M249.297 159.848L256.297 178.076C256.521 178.692 256.297 179 255.653 179H254.197C253.049 179 252.685 178.832 252.461 178.16L251.173 174.548H243.445L242.129 178.16C241.905 178.832 241.541 179 240.393 179H239.105C238.461 179 238.237 178.692 238.461 178.076L245.461 159.876C245.713 159.232 245.965 159.092 246.637 159.092H248.121C248.793 159.092 249.073 159.26 249.297 159.848ZM250.193 171.664L248.065 165.756C247.729 164.748 247.505 163.46 247.421 162.816L247.393 162.34H247.197C247.197 163.404 247.001 164.524 246.581 165.728L244.425 171.664H250.193Z" fill="white"/>
<path d="M235.522 175.724H236.922C237.622 175.724 237.874 175.976 237.874 176.676V182.332C237.874 183.032 237.622 183.284 236.922 183.284H235.438C234.738 183.284 234.486 183.032 234.486 182.332V179H221.438C220.738 179 220.458 178.748 220.458 178.048V160.072C220.458 159.372 220.738 159.12 221.438 159.12H223.034C223.734 159.12 223.986 159.372 223.986 160.072V175.724H231.994V160.072C231.994 159.372 232.246 159.12 232.946 159.12H234.542C235.242 159.12 235.522 159.372 235.522 160.072V175.724Z" fill="white"/>
<path d="M214.516 159.12H216.168C216.868 159.12 217.12 159.372 217.12 160.072V178.048C217.12 178.748 216.868 179 216.168 179H214.572C213.872 179 213.62 178.748 213.62 178.048V169.844C213.62 168.416 213.676 167.324 213.76 166.568C213.844 165.812 214.012 164.776 214.292 163.432H214.18C213.536 165.056 212.612 166.82 211.38 168.752L204.968 178.524C204.772 178.832 204.464 179 204.016 179H202.392C201.692 179 201.412 178.748 201.412 178.048V160.072C201.412 159.372 201.692 159.12 202.392 159.12H203.988C204.688 159.12 204.94 159.372 204.94 160.072V168.192C204.94 169.62 204.912 170.712 204.828 171.496C204.744 172.28 204.548 173.344 204.268 174.688H204.38C205.08 172.924 206.032 171.076 207.292 169.144L213.592 159.568C213.788 159.26 214.096 159.12 214.516 159.12Z" fill="white"/>
<path d="M195.545 159.12H197.141C197.841 159.12 198.121 159.372 198.121 160.072V178.048C198.121 178.748 197.841 179 197.141 179H195.545C194.845 179 194.593 178.748 194.593 178.048V170.572H186.305V178.048C186.305 178.748 186.053 179 185.353 179H183.757C183.057 179 182.777 178.748 182.777 178.048V160.072C182.777 159.372 183.057 159.12 183.757 159.12H185.353C186.053 159.12 186.305 159.372 186.305 160.072V167.296H194.593V160.072C194.593 159.372 194.845 159.12 195.545 159.12Z" fill="white"/>
<path d="M174.427 159.848L181.427 178.076C181.651 178.692 181.427 179 180.783 179H179.327C178.179 179 177.815 178.832 177.591 178.16L176.303 174.548H168.575L167.259 178.16C167.035 178.832 166.671 179 165.523 179H164.235C163.591 179 163.367 178.692 163.591 178.076L170.591 159.876C170.843 159.232 171.095 159.092 171.767 159.092H173.251C173.923 159.092 174.203 159.26 174.427 159.848ZM175.323 171.664L173.195 165.756C172.859 164.748 172.635 163.46 172.551 162.816L172.523 162.34H172.327C172.327 163.404 172.131 164.524 171.711 165.728L169.555 171.664H175.323Z" fill="white"/>
<path d="M150.287 159.12H157.707C161.767 159.12 164.315 161.584 164.315 165.616C164.315 169.648 161.767 172.084 157.707 172.084H152.835V178.048C152.835 178.748 152.583 179 151.883 179H150.287C149.587 179 149.307 178.748 149.307 178.048V160.072C149.307 159.372 149.587 159.12 150.287 159.12ZM152.835 168.808H157.371C159.415 168.808 160.619 167.632 160.619 165.616C160.619 163.6 159.415 162.396 157.371 162.396H152.835V168.808Z" fill="white"/>
<path d="M133.42 159.12H146.58C147.28 159.12 147.532 159.372 147.532 160.072V161.444C147.532 162.144 147.28 162.396 146.58 162.396H141.764V178.048C141.764 178.748 141.512 179 140.812 179H139.188C138.488 179 138.236 178.748 138.236 178.048V162.396H133.42C132.72 162.396 132.468 162.144 132.468 161.444V160.072C132.468 159.372 132.72 159.12 133.42 159.12Z" fill="white"/>
<path d="M116.098 172.112V165.98C116.098 161.472 118.982 158.7 124.106 158.7C128.082 158.7 130.63 160.268 131.722 163.376C131.946 163.964 131.75 164.384 131.134 164.608L129.594 165.14C128.922 165.364 128.642 165.224 128.39 164.552C127.774 162.844 126.346 161.976 124.106 161.976C121.222 161.976 119.626 163.376 119.626 165.952V172.14C119.626 174.716 121.222 176.144 124.106 176.144C126.318 176.144 127.746 175.276 128.39 173.54C128.698 172.84 128.95 172.7 129.622 172.952L131.134 173.484C131.75 173.708 131.946 174.128 131.75 174.716C130.658 177.852 128.11 179.42 124.106 179.42C118.982 179.42 116.098 176.676 116.098 172.112Z" fill="white"/>
</g>
<defs>
<clipPath id="clip0_19598_21350">
<rect width="371.29" height="380.98" fill="white"/>
</clipPath>
</defs>
</svg>
